<svg width="36" height="36" fill="none" xmlns="http://www.w3.org/2000/svg"><circle cx="18" cy="18" r="18" fill="#F49725"/><g clip-path="url(#a)"><path d="M23.052 19.938H6.549c-.632 0-1.123-.246-1.404-.826-.448-.922.198-1.99 1.228-2.049.098-.005.195 0 .293 0h16.443c-.095-.103-.153-.17-.213-.233a29611.93 29611.93 0 0 1-5.3-5.332c-.697-.702-.614-1.733.17-2.257a1.402 1.402 0 0 1 1.702.104c.08.071.155.143.23.221l7.746 7.785c.742.747.747 1.544.01 2.286l-7.799 7.847c-.43.432-.922.628-1.515.452a1.408 1.408 0 0 1-.965-.98 1.431 1.431 0 0 1 .318-1.344c.34-.374.71-.722 1.064-1.082 1.44-1.449 2.883-2.898 4.325-4.347.063-.062.135-.114.202-.171l-.032-.074Z" fill="#000"/></g><defs><clipPath id="a"><path fill="#fff" transform="translate(5 9)" d="M0 0h23v19H0z"/></clipPath></defs></svg>