<svg width="107" height="30" fill="none" xmlns="http://www.w3.org/2000/svg"><g clip-path="url(#a)"><path d="M103.36 0H59.479a3.642 3.642 0 0 0-3.64 3.645v22.71A3.642 3.642 0 0 0 59.48 30h43.881c2.01 0 3.64-1.632 3.64-3.645V3.645A3.643 3.643 0 0 0 103.36 0Z" fill="#F49725"/><path d="m12.805 9.42-4.43-.054-.141 11.645-3.946-.047.141-11.648L0 9.279l.04-3.322 12.805.158-.04 3.305ZM17.503 16.562c.023 1.598.934 2.534 2.447 2.554.988 0 1.58-.4 2.053-1.235l3.337.04c-.722 2.356-2.732 3.605-5.461 3.571-3.381-.044-5.895-2.198-5.851-5.721.04-3.426 2.463-5.792 5.864-5.752 3.57.044 5.714 2.447 5.677 6.314v.316l-8.066-.087Zm2.383-4.133c-1.28-.017-2.09.73-2.316 2.096l4.514.054c-.091-1.242-.834-2.133-2.198-2.15ZM38.239 17.11c-.434 2.878-2.353 4.513-5.535 4.476-3.338-.04-5.64-2.319-5.6-5.684.044-3.466 2.353-5.772 5.805-5.721 3.024.037 5.101 1.723 5.28 4.29l-3.445-.04a1.792 1.792 0 0 0-1.825-1.662c-1.388-.02-2.222 1.147-2.245 3.167-.024 1.911.74 2.995 2.147 3.012 1.093 0 1.751-.59 1.997-1.868l3.42.03ZM43.79 12.008c.979-1.144 1.91-1.66 3.462-1.639 2.313.027 3.848 1.286 3.818 3.914l-.09 7.253-3.546-.044.077-6.394c0-1.178-.48-1.835-1.7-1.848-1.593-.02-2.05 1.087-2.067 2.561l-.068 5.634-3.498-.05.185-14.97 3.505.043-.077 5.54ZM60.766 6.687l5.666.068 2.602 10.433 2.92-10.353 5.522.068-.185 14.97-3.697-.044.336-11.416-3.478 11.375-3.001-.037-3.18-11.443v11.4l-3.676-.054.171-14.967ZM86.966 21.977a2.901 2.901 0 0 1-.154-1.03 4.912 4.912 0 0 1-3.606 1.323c-2.353-.03-3.784-1.31-3.76-3.393.033-2.692 2.284-3.062 4.513-3.365 2.167-.313 2.86-.26 2.873-1.27 0-.777-.53-1.164-1.647-1.177-1.115-.014-1.576.212-1.841 1.346l-3.361-.04c.259-2.434 1.976-3.612 5.27-3.571 1.364.017 2.853.202 3.975 1.036.814.6 1.035 1.296 1.009 2.723l-.054 4.352c0 1.053-.027 2.147.383 3.116l-3.6-.05Zm-2.51-4.486c-.924.175-1.344.592-1.344 1.305 0 .801.507 1.29 1.391 1.303 1.197 0 2.275-.673 2.292-2.097v-1.114a10.04 10.04 0 0 1-2.339.602ZM91.85 11.187l3.945.05 1.502 2.582 1.563-2.545 3.781.048-3.465 5.048 3.794 5.809-3.925-.05-1.872-3.178-1.895 3.116-3.906-.05 3.872-5.637-3.394-5.193Z" fill="#fff"/></g><defs><clipPath id="a"><path fill="#fff" d="M0 0h107v30H0z"/></clipPath></defs></svg>