<svg width="190" height="54" fill="none" xmlns="http://www.w3.org/2000/svg"><path d="M182.884 53.224h-77.466c-3.559 0-6.406-2.825-6.406-6.357V7.133c0-3.532 2.847-6.357 6.406-6.357h77.466c3.559 0 6.406 2.825 6.406 6.357v39.734c0 3.532-2.847 6.357-6.406 6.357Z" fill="#F49725"/><path d="m23.03 17.258-7.83-.118-.237 20.368-6.94-.06.237-20.366-7.83-.118.06-5.828 22.658.295-.119 5.827ZM31.333 29.737c.06 2.767 1.661 4.415 4.33 4.474 1.72 0 2.788-.706 3.619-2.178l5.872.059c-1.246 4.12-4.805 6.357-9.61 6.298-5.99-.059-10.38-3.826-10.32-10.007.06-6.004 4.33-10.124 10.38-10.066 6.288.06 10.084 4.298 10.024 11.067v.53l-14.295-.177Zm4.212-7.24c-2.254 0-3.678 1.295-4.093 3.65l7.948.117c-.118-2.178-1.423-3.708-3.855-3.767ZM67.93 30.68c-.77 5.003-4.151 7.887-9.786 7.828-5.872-.058-9.965-4.061-9.906-9.948.06-6.063 4.152-10.124 10.262-10.007 5.338.06 9.016 3.002 9.312 7.535l-6.05-.059c-.296-1.825-1.483-2.884-3.203-2.884-2.432-.06-3.915 2.001-3.974 5.533-.06 3.355 1.305 5.239 3.796 5.239 1.898 0 3.085-1 3.5-3.238h6.05ZM77.777 21.79c1.72-2 3.381-2.884 6.11-2.884 4.093.06 6.762 2.237 6.762 6.829l-.178 12.714-6.288-.059.119-11.184c0-2.06-.83-3.237-3.025-3.237-2.788-.06-3.618 1.883-3.678 4.473l-.118 9.83-6.17-.058.297-26.195 6.17.059v9.713Z" fill="#020203"/><path d="m107.672 12.49 10.024.118 4.568 18.248 5.16-18.13 9.728.117-.297 26.195-6.524-.059.593-19.955-6.11 19.896-5.279-.058-5.635-20.014v19.955l-6.524-.177.296-26.136ZM153.938 39.215c-.237-.707-.237-.884-.297-1.825-1.779 1.59-3.677 2.354-6.346 2.295-4.152-.058-6.703-2.295-6.644-5.945.06-4.768 4.034-5.357 7.949-5.886 3.796-.53 5.041-.471 5.041-2.237 0-1.354-.949-2.06-2.906-2.06-1.957 0-2.788.353-3.262 2.354l-5.932-.059c.475-4.238 3.5-6.298 9.313-6.24 2.432 0 5.041.354 6.999 1.825 1.423 1.06 1.839 2.237 1.779 4.768v7.653c0 1.825-.059 3.767.653 5.474l-6.347-.117Zm-4.449-7.83c-1.66.295-2.372 1.06-2.372 2.296 0 1.413.889 2.237 2.432 2.296 2.135 0 4.033-1.177 4.033-3.65v-1.942c-1.246.53-2.669.706-4.093 1ZM162.539 20.32l6.94.058 2.669 4.533 2.788-4.474 6.643.059-6.11 8.83 6.703 10.183-6.94-.059-3.322-5.533-3.321 5.474-6.881-.058 6.821-9.89-5.99-9.124Z" fill="#040405"/></svg>