<svg width="18" height="28" fill="none" xmlns="http://www.w3.org/2000/svg"><path d="M8.992 0a9.093 9.093 0 0 1 6.064 2.314 8.805 8.805 0 0 1 2.898 5.726c.186 1.988-.214 3.905-.816 5.787-1.101 3.418-2.873 6.506-4.952 9.423-.847 1.19-1.778 2.323-2.685 3.472-.316.4-.666.396-.991.012-2.942-3.494-5.454-7.248-7.144-11.493C.556 13.208.008 11.11 0 8.908A8.76 8.76 0 0 1 2.247 3.02 9.042 9.042 0 0 1 7.906.088C8.265.042 8.63.028 8.992 0Zm4.868 8.723a4.838 4.838 0 0 0-5.113-4.631 4.895 4.895 0 0 0-3.346 1.573A4.734 4.734 0 0 0 4.157 9.1c.13 2.649 2.4 4.653 5.135 4.533 2.567-.112 4.691-2.396 4.568-4.91Z" fill="#F49725"/></svg>