<svg width="26" height="26" fill="none" xmlns="http://www.w3.org/2000/svg"><g clip-path="url(#a)"><path d="M12.557 0h.915c.106.026.213.045.321.057 1.208.06 2.401.298 3.54.705 5.327 1.873 8.992 7.113 8.644 12.97-.092 1.552-.404 3.054-1.059 4.46-2.018 4.33-5.381 6.914-10.12 7.67a12.076 12.076 0 0 1-4.415-.139c-2.926-.615-5.365-2.068-7.295-4.345A12.615 12.615 0 0 1 .11 14.422c-.034-.318-.072-.636-.109-.95v-.921c.02-.124.044-.247.06-.372.077-.593.112-1.196.233-1.78.604-2.897 2.033-5.32 4.28-7.246A12.657 12.657 0 0 1 11.604.108c.318-.034.635-.072.952-.109Zm.476 19.166.005.068 2.98-.272a4.921 4.921 0 0 0 2.848-1.202c.773-.673 1.45-1.44 1.664-2.46.2-.967.321-1.95.362-2.936.038-.839-.057-1.688-.142-2.528-.094-.924-.332-1.808-.93-2.56-.765-.965-1.665-1.775-2.893-2.027-1.03-.213-2.09-.304-3.142-.372-1.252-.081-2.504.01-3.746.196-.644.096-1.286.198-1.868.521-1.85 1.021-2.814 2.586-2.957 4.687-.068.99-.153 1.977-.035 2.963.091.77.148 1.565.4 2.287.526 1.51 1.633 2.518 3.102 3.127.181.075.267.146.258.357-.02.431-.006.864-.006 1.296 0 .42.146.678.463.794.35.131.62 0 .862-.257.489-.517.98-1.03 1.485-1.533a.581.581 0 0 1 .347-.145c.311-.017.626-.004.94-.004h.003Z" fill="#6F3EAA"/><path d="M13.03 19.166c-.314 0-.629-.013-.94.006a.58.58 0 0 0-.348.145 78.523 78.523 0 0 0-1.484 1.533c-.242.254-.512.388-.862.257-.317-.119-.461-.375-.463-.794 0-.432-.013-.864.006-1.296.01-.21-.077-.282-.258-.357-1.47-.61-2.576-1.617-3.103-3.127-.251-.721-.308-1.518-.4-2.287-.117-.986-.032-1.973.036-2.963.143-2.104 1.107-3.666 2.953-4.689.583-.323 1.223-.425 1.869-.521 1.241-.186 2.494-.277 3.745-.196 1.052.068 2.113.16 3.142.372 1.228.252 2.129 1.062 2.894 2.027.597.752.836 1.636.93 2.56.084.84.18 1.69.142 2.528a18.23 18.23 0 0 1-.363 2.936c-.213 1.018-.89 1.787-1.664 2.46a4.921 4.921 0 0 1-2.848 1.202l-2.98.272-.005-.068Zm-3.46-.248c0 .448-.003.897.005 1.346a.254.254 0 0 0 .088.183c.028.02.12-.03.17-.068.06-.049.115-.102.164-.16.757-.777 1.51-1.556 2.273-2.326a.63.63 0 0 1 .365-.172c1.045-.08 2.091-.14 3.136-.21 1.216-.081 2.146-.68 2.853-1.634.228-.294.398-.628.501-.985.133-.567.224-1.143.272-1.723.126-1.254 0-2.495-.188-3.738-.192-1.269-1.666-2.63-2.707-2.79-.967-.15-1.944-.26-2.92-.317-1.244-.063-2.49.02-3.715.25-1.46.26-2.445 1.134-2.94 2.5-.211.583-.266 1.24-.29 1.87a22.83 22.83 0 0 0 .051 2.663c.043.558.127 1.144.35 1.648.448 1.019 1.248 1.714 2.301 2.093.182.068.236.152.233.328-.007.412-.002.827-.002 1.242Z" fill="#fff"/><path d="M9.57 18.918c0-.415-.005-.83 0-1.245 0-.175-.05-.263-.232-.328-1.053-.378-1.853-1.078-2.302-2.092-.222-.505-.307-1.091-.35-1.649a22.83 22.83 0 0 1-.05-2.657c.025-.629.08-1.287.29-1.87.494-1.365 1.481-2.24 2.94-2.5a15.892 15.892 0 0 1 3.715-.25 30.78 30.78 0 0 1 2.92.317c1.041.16 2.514 1.522 2.707 2.79.189 1.243.315 2.484.188 3.738-.047.58-.138 1.157-.271 1.724a2.94 2.94 0 0 1-.502.984c-.707.956-1.637 1.553-2.852 1.634-1.046.068-2.092.13-3.137.21a.631.631 0 0 0-.364.173c-.765.769-1.517 1.549-2.274 2.325a1.26 1.26 0 0 1-.163.16c-.05.035-.142.085-.17.068a.253.253 0 0 1-.09-.183c-.006-.452-.003-.9-.003-1.35Zm4.053-4.892a1.686 1.686 0 0 1-.176-.018.97.97 0 0 1-.17-.052c-1.082-.422-1.761-1.222-2.15-2.295a.448.448 0 0 1 .137-.527c.083-.073.169-.142.254-.21.307-.25.4-.574.191-.898-.316-.49-.666-.957-1.019-1.422-.153-.203-.385-.246-.619-.144a2.125 2.125 0 0 0-1.059.947.814.814 0 0 0-.038.777c.15.32.276.654.422.977 1.107 2.454 3.014 4.03 5.48 4.997.36.14.696.108.969-.136.277-.244.522-.522.728-.828.22-.332.157-.573-.161-.815-.423-.324-.863-.626-1.298-.933a.654.654 0 0 0-.204-.092c-.348-.093-.582.08-.777.34-.134.17-.258.348-.51.332Zm-.475-6.065c-.068 0-.149-.023-.204.006-.103.066-.2.14-.292.222.086.087.158.204.261.25.119.053.265.048.4.057a3.329 3.329 0 0 1 3.045 2.764c.047.291.067.587.095.882.017.17.083.311.272.3.175-.01.236-.146.22-.311-.035-.34-.053-.674-.108-1.007-.283-1.731-1.93-3.139-3.69-3.163Zm2.784 3.631.054-.015c-.105-.361-.164-.747-.323-1.08-.46-.981-1.29-1.434-2.342-1.516-.246-.02-.396.162-.288.33a.396.396 0 0 0 .266.151c1.47.152 2.154 1.149 2.144 2.278 0 .164.072.295.244.297.17.002.245-.126.245-.293v-.152Zm-1.01-.24c-.034-.765-.551-1.289-1.296-1.313-.16-.006-.296.019-.318.204-.023.197.114.263.28.288.571.09.75.266.843.854.026.17.086.326.292.31.207-.015.204-.184.195-.342h.003Z" fill="#6F3EAA"/><path d="M13.623 14.026c.252.016.376-.162.504-.333.194-.262.429-.435.777-.339.073.019.142.05.204.092.435.307.875.61 1.298.933.318.244.38.485.162.815a4.336 4.336 0 0 1-.73.828c-.271.245-.607.277-.968.136-2.466-.967-4.373-2.543-5.48-4.997-.146-.323-.272-.656-.422-.977a.814.814 0 0 1 .038-.777 2.126 2.126 0 0 1 1.059-.947c.234-.102.466-.059.62.144.351.465.702.932 1.018 1.422.21.324.116.647-.19.897-.086.068-.173.136-.255.21a.448.448 0 0 0-.136.528c.388 1.072 1.067 1.873 2.15 2.295a.97.97 0 0 0 .168.052c.061.01.122.015.183.018ZM13.147 7.962c1.756.023 3.407 1.431 3.692 3.16.055.333.073.671.107 1.007.017.166-.044.301-.219.311-.188.012-.254-.13-.272-.299-.028-.294-.048-.59-.095-.883a3.326 3.326 0 0 0-3.045-2.764c-.136-.009-.281-.003-.4-.055-.103-.047-.175-.165-.261-.25.091-.083.189-.157.292-.224.052-.027.134-.004.201-.003Z" fill="#fff"/><path d="M15.93 11.592v.152c0 .168-.075.295-.246.293-.171-.001-.245-.136-.243-.297.01-1.13-.675-2.126-2.145-2.278a.395.395 0 0 1-.266-.15c-.108-.17.042-.35.288-.331 1.052.082 1.882.535 2.343 1.515.158.34.218.72.322 1.08l-.053.016Z" fill="#fff"/><path d="M14.918 11.353c.01.158.014.326-.197.343-.212.016-.267-.14-.293-.311-.09-.588-.268-.768-.844-.855-.165-.025-.302-.09-.279-.288.022-.184.159-.209.319-.203.744.027 1.261.548 1.294 1.314Z" fill="#fff"/></g><defs><clipPath id="a"><path fill="#fff" d="M0 0h26v26H0z"/></clipPath></defs></svg>