<svg width="35" height="35" fill="none" xmlns="http://www.w3.org/2000/svg"><g clip-path="url(#a)"><path d="M16.904 0h1.232c.142.035.286.061.431.077 1.627.081 3.233.4 4.767.95 7.17 2.52 12.103 9.574 11.635 17.458-.123 2.09-.543 4.112-1.425 6.003-2.718 5.83-7.244 9.309-13.623 10.327-1.976.303-3.99.24-5.943-.188-3.94-.828-7.223-2.784-9.82-5.848a16.982 16.982 0 0 1-4.01-9.365C.1 18.986.048 18.559 0 18.134v-1.239c.027-.166.06-.332.08-.5.104-.799.151-1.61.315-2.396.813-3.9 2.736-7.162 5.76-9.755A17.039 17.039 0 0 1 15.623.147C16.05.101 16.477.05 16.904 0Zm.64 25.8.007.092 4.01-.366a6.625 6.625 0 0 0 3.835-1.618c1.042-.906 1.952-1.94 2.24-3.313.27-1.301.433-2.623.489-3.95.05-1.13-.078-2.273-.192-3.404-.127-1.244-.448-2.434-1.251-3.447-1.03-1.298-2.243-2.388-3.896-2.728-1.386-.286-2.814-.41-4.23-.501-1.685-.109-3.37.014-5.042.264-.867.13-1.73.267-2.515.702-2.49 1.374-3.787 3.48-3.98 6.309-.091 1.332-.207 2.662-.048 3.988.124 1.036.2 2.108.538 3.08.709 2.031 2.199 3.39 4.177 4.21.244.1.36.196.348.48-.027.58-.01 1.162-.008 1.743 0 .565.196.914.622 1.07.471.176.835 0 1.16-.347a98.723 98.723 0 0 1 2-2.063.783.783 0 0 1 .466-.195c.42-.024.843-.005 1.266-.005h.004Z" fill="#6F3EAA"/><path d="M17.54 25.8c-.423 0-.846-.018-1.266.009a.783.783 0 0 0-.467.194c-.678.677-1.34 1.371-1.998 2.064-.326.343-.69.523-1.16.346-.427-.16-.621-.504-.623-1.07 0-.58-.019-1.162.008-1.743.012-.284-.104-.38-.348-.48-1.978-.823-3.468-2.178-4.177-4.21-.338-.972-.414-2.044-.538-3.079-.159-1.327-.043-2.656.048-3.989.193-2.833 1.49-4.934 3.975-6.311.785-.435 1.646-.572 2.516-.702 1.67-.25 3.357-.373 5.042-.264 1.415.091 2.843.214 4.23.5 1.652.34 2.865 1.43 3.895 2.73.804 1.012 1.125 2.201 1.25 3.446.115 1.13.243 2.274.193 3.403a24.545 24.545 0 0 1-.488 3.951c-.288 1.371-1.199 2.407-2.24 3.313a6.627 6.627 0 0 1-3.835 1.618l-4.01.366-.007-.091Zm-4.657-.334c0 .604-.004 1.208.006 1.812a.34.34 0 0 0 .119.246c.038.027.162-.04.23-.091.08-.066.153-.138.22-.216 1.018-1.045 2.031-2.095 3.06-3.13a.849.849 0 0 1 .49-.232c1.407-.107 2.816-.188 4.223-.283 1.636-.109 2.888-.914 3.84-2.2.306-.395.535-.845.674-1.325.18-.763.302-1.539.366-2.32.17-1.688 0-3.358-.253-5.032-.259-1.707-2.243-3.54-3.643-3.756a41.444 41.444 0 0 0-3.932-.426 21.394 21.394 0 0 0-5 .335c-1.965.35-3.292 1.528-3.96 3.366-.282.786-.356 1.671-.39 2.518a30.734 30.734 0 0 0 .07 3.585c.058.75.171 1.54.47 2.219.604 1.37 1.681 2.307 3.1 2.816.243.092.317.206.312.443-.009.553-.003 1.113-.002 1.671Z" fill="#fff"/><path d="M12.883 25.466c0-.558-.007-1.117 0-1.675 0-.237-.068-.355-.312-.442-1.418-.51-2.495-1.45-3.099-2.817-.3-.679-.413-1.468-.47-2.218a30.734 30.734 0 0 1-.07-3.578c.034-.846.108-1.732.391-2.518.666-1.837 1.994-3.015 3.959-3.365a21.393 21.393 0 0 1 5-.336c1.315.077 2.63.224 3.932.426 1.4.217 3.383 2.049 3.643 3.757.254 1.673.423 3.344.253 5.031a15.805 15.805 0 0 1-.365 2.32c-.14.48-.369.93-.675 1.326-.952 1.286-2.204 2.09-3.84 2.2-1.407.09-2.816.175-4.222.282a.848.848 0 0 0-.491.233c-1.029 1.035-2.042 2.085-3.06 3.13a1.68 1.68 0 0 1-.22.215c-.069.048-.192.114-.23.091a.342.342 0 0 1-.12-.245c-.008-.609-.004-1.213-.004-1.817Zm5.456-6.585a2.285 2.285 0 0 1-.238-.025 1.311 1.311 0 0 1-.227-.07c-1.458-.568-2.372-1.644-2.894-3.089a.603.603 0 0 1 .183-.71c.111-.098.227-.19.342-.283.413-.336.539-.771.257-1.208a30.854 30.854 0 0 0-1.371-1.914c-.207-.274-.52-.33-.834-.193a2.862 2.862 0 0 0-1.425 1.274 1.097 1.097 0 0 0-.051 1.046c.202.432.37.88.567 1.316 1.49 3.303 4.058 5.424 7.378 6.725.485.19.936.147 1.303-.182.374-.329.703-.703.982-1.115.295-.447.21-.771-.218-1.097-.569-.436-1.161-.842-1.747-1.256a.878.878 0 0 0-.275-.124c-.469-.125-.784.11-1.046.457-.18.23-.347.469-.686.448Zm-.64-8.164c-.092 0-.2-.032-.274.007-.14.09-.27.19-.394.3.116.116.213.274.352.337.16.07.356.063.538.075a4.48 4.48 0 0 1 4.099 3.721c.064.392.091.79.129 1.188.023.229.111.419.365.403.235-.014.318-.195.296-.418-.046-.457-.07-.908-.145-1.356-.381-2.33-2.6-4.225-4.967-4.257Zm3.748 4.888.073-.021c-.141-.486-.222-1.005-.435-1.455-.62-1.32-1.737-1.929-3.153-2.04-.331-.025-.533.218-.388.446a.532.532 0 0 0 .358.202c1.978.204 2.9 1.547 2.887 3.066 0 .221.097.398.327.4.23.003.331-.168.331-.393v-.205Zm-1.36-.323c-.046-1.03-.741-1.736-1.744-1.768-.215-.008-.4.025-.428.274-.031.266.153.354.375.388.77.12 1.012.358 1.136 1.15.035.23.116.439.394.418.278-.021.274-.249.262-.462h.004Z" fill="#6F3EAA"/><path d="M18.339 18.881c.34.021.506-.217.677-.448.263-.352.578-.586 1.047-.456.098.025.19.066.274.123.587.414 1.179.822 1.748 1.256.428.33.513.654.217 1.097a5.84 5.84 0 0 1-.98 1.115c-.366.33-.819.374-1.305.183-3.32-1.302-5.887-3.423-7.377-6.726-.197-.436-.366-.884-.568-1.316a1.097 1.097 0 0 1 .052-1.046 2.86 2.86 0 0 1 1.425-1.274c.314-.137.627-.08.834.194.473.625.945 1.254 1.371 1.913.282.437.156.872-.257 1.208-.115.092-.231.183-.343.284a.603.603 0 0 0-.182.71c.522 1.443 1.436 2.52 2.893 3.09.074.03.15.052.228.069.081.012.163.02.246.024ZM17.698 10.718c2.364.031 4.586 1.927 4.97 4.255.074.448.099.903.145 1.355.021.223-.06.405-.296.419-.253.015-.342-.175-.366-.403-.038-.396-.064-.795-.128-1.188a4.477 4.477 0 0 0-4.1-3.721c-.182-.012-.378-.005-.537-.075-.14-.063-.237-.221-.352-.337.123-.11.255-.21.393-.3.07-.038.18-.006.271-.005Z" fill="#fff"/><path d="M21.444 15.605v.205c0 .225-.1.396-.331.394-.23-.002-.33-.183-.328-.4.013-1.52-.908-2.863-2.887-3.066a.533.533 0 0 1-.357-.203c-.146-.228.056-.47.387-.445 1.417.11 2.534.72 3.154 2.04.213.456.293.968.434 1.454l-.072.021Z" fill="#fff"/><path d="M20.082 15.283c.012.213.019.44-.266.461-.284.022-.359-.188-.394-.418-.12-.792-.36-1.034-1.135-1.15-.222-.035-.407-.122-.376-.388.03-.249.213-.282.429-.274 1.002.036 1.698.738 1.742 1.769Z" fill="#fff"/></g><defs><clipPath id="a"><path fill="#fff" d="M0 0h35v35H0z"/></clipPath></defs></svg>