<svg width="26" height="26" fill="none" xmlns="http://www.w3.org/2000/svg"><g clip-path="url(#a)"><path d="M12.554 0h.914c.107.018.215.04.323.056.76.109 1.535.154 2.277.335 6.733 1.647 11.067 8.25 9.67 15.203-1.34 6.668-7.611 11.153-14.359 10.306-2.34-.294-4.46-1.159-6.314-2.625C2.199 21.01.53 18.063.108 14.425c-.037-.318-.072-.636-.107-.954v-.918c.02-.132.043-.264.058-.398.059-.494.085-.994.176-1.483C.679 8.28 1.7 6.16 3.335 4.358 5.547 1.917 8.292.488 11.575.11c.325-.038.652-.073.979-.11Zm.45 4.82c-.518.068-1.042.102-1.554.2a8.09 8.09 0 0 0-5.756 11.391.756.756 0 0 1 .046.432c-.248 1.25-.51 2.497-.765 3.746-.096.472.077.635.543.524 1.216-.287 2.43-.58 3.648-.858a.733.733 0 0 1 .429.03c1.64.735 3.336.944 5.1.57a8.08 8.08 0 0 0 6.29-9.248c-.667-3.933-4.013-6.742-7.98-6.787Z" fill="#27A81A"/><path d="M13.004 4.82c3.967.045 7.314 2.852 7.983 6.79a8.08 8.08 0 0 1-6.292 9.244c-1.765.374-3.458.165-5.1-.569a.732.732 0 0 0-.428-.03c-1.218.278-2.432.57-3.648.858-.468.11-.641-.053-.543-.525.255-1.248.517-2.496.765-3.746a.756.756 0 0 0-.046-.432 8.09 8.09 0 0 1 5.756-11.39c.51-.1 1.034-.135 1.553-.2Zm-5.83 14.026c.102-.014.167-.016.23-.03.574-.136 1.154-.253 1.723-.415a1.227 1.227 0 0 1 .98.112 6.084 6.084 0 0 0 4.01.62 6.284 6.284 0 0 0 5.127-7.08c-.393-2.852-2.752-5.131-5.64-5.368-2.288-.187-4.188.637-5.6 2.462-1.018 1.312-1.413 2.822-1.242 4.481.089.843.348 1.659.763 2.398a.92.92 0 0 1 .092.696c-.16.691-.292 1.385-.444 2.124Z" fill="#fff"/><path d="M7.173 18.846c.152-.739.285-1.435.442-2.125a.92.92 0 0 0-.091-.696 6.236 6.236 0 0 1-.764-2.398c-.17-1.658.227-3.168 1.243-4.481 1.412-1.826 3.311-2.648 5.6-2.462 2.888.237 5.247 2.518 5.64 5.368a6.284 6.284 0 0 1-5.126 7.08 6.083 6.083 0 0 1-4.01-.62 1.23 1.23 0 0 0-.98-.112c-.567.163-1.147.28-1.722.415-.064.014-.13.017-.232.03Zm7.94-1.93c.257-.04.52-.058.77-.123.597-.154.966-.6 1.3-1.076.339-.49.181-.927-.388-1.087-.332-.094-.679-.155-.996-.285-.543-.222-.966-.13-1.342.34-.252.314-.483.339-.831.135a8.43 8.43 0 0 1-2.42-2.137c-.246-.32-.225-.519.023-.847.092-.121.218-.231.266-.368.06-.174.129-.395.068-.55a17.55 17.55 0 0 0-.684-1.552.567.567 0 0 0-.883-.2 4.454 4.454 0 0 0-.594.588 1.919 1.919 0 0 0-.478 1.37c.026.636.213 1.255.543 1.8.804 1.353 1.929 2.39 3.255 3.213.727.453 1.514.742 2.39.78Z" fill="#27A81A"/><path d="M15.112 16.917c-.876-.038-1.663-.327-2.391-.78-1.326-.823-2.451-1.86-3.254-3.213a3.766 3.766 0 0 1-.543-1.8 1.919 1.919 0 0 1 .48-1.376c.18-.214.379-.41.595-.587a.567.567 0 0 1 .883.198c.248.508.486 1.024.683 1.553.058.155-.01.376-.067.55-.049.135-.174.247-.266.367-.248.33-.272.528-.023.848a8.429 8.429 0 0 0 2.42 2.137c.348.204.579.182.83-.136.376-.467.798-.56 1.342-.34.319.13.664.192.997.286.569.161.729.598.387 1.086-.333.476-.703.922-1.299 1.077-.253.072-.516.09-.774.13Z" fill="#fff"/></g><defs><clipPath id="a"><path fill="#fff" d="M0 0h26v26H0z"/></clipPath></defs></svg>