<svg width="35" height="35" fill="none" xmlns="http://www.w3.org/2000/svg"><g clip-path="url(#a)"><path d="M16.9 0h1.23c.145.025.289.054.434.075 1.023.147 2.067.207 3.066.451 9.064 2.217 14.898 11.107 13.018 20.466-1.805 8.976-10.247 15.013-19.33 13.874-3.15-.397-6.004-1.56-8.5-3.534C2.96 28.282.715 24.316.146 19.418c-.05-.427-.097-.856-.145-1.284V16.9c.027-.179.058-.357.079-.536.079-.665.113-1.339.236-1.997.598-3.22 1.974-6.073 4.174-8.5C7.468 2.58 11.162.656 15.582.148 16.02.097 16.459.05 16.899 0Zm.606 6.49c-.698.09-1.404.135-2.093.268a10.891 10.891 0 0 0-7.748 15.334c.077.183.099.386.062.581-.333 1.683-.687 3.362-1.03 5.043-.13.635.103.855.731.706 1.636-.387 3.272-.78 4.91-1.155a.986.986 0 0 1 .578.04c2.209.989 4.491 1.27 6.865.766a10.876 10.876 0 0 0 8.469-12.449c-.899-5.293-5.404-9.074-10.744-9.136v.001Z" fill="#27A81A"/><path d="M16.899 0c-.44.05-.88.097-1.318.147C11.163.654 7.466 2.58 4.489 5.865c-2.2 2.428-3.577 5.281-4.175 8.5-.122.658-.157 1.332-.235 1.997-.021.183-.052.358-.079.536V0h16.899ZM17.506 6.488c5.34.062 9.845 3.839 10.746 9.14a10.877 10.877 0 0 1-8.47 12.444c-2.376.505-4.656.223-6.865-.765a.986.986 0 0 0-.577-.041c-1.64.375-3.274.769-4.91 1.155-.63.15-.864-.071-.731-.706.342-1.681.696-3.36 1.03-5.043a1.018 1.018 0 0 0-.063-.581 10.891 10.891 0 0 1 7.748-15.334c.688-.133 1.393-.181 2.092-.269ZM9.656 25.37c.138-.018.226-.022.31-.04.774-.184 1.554-.34 2.32-.56a1.655 1.655 0 0 1 1.32.153 8.19 8.19 0 0 0 5.397.834 8.459 8.459 0 0 0 6.903-9.531c-.53-3.839-3.705-6.907-7.592-7.226-3.082-.252-5.638.857-7.54 3.314-1.37 1.767-1.902 3.799-1.672 6.032a8.395 8.395 0 0 0 1.028 3.229c.163.283.207.62.123.936-.214.93-.392 1.865-.597 2.86Z" fill="#fff"/><path d="M9.656 25.37c.205-.995.383-1.932.595-2.862.085-.316.04-.653-.123-.936A8.397 8.397 0 0 1 9.1 18.343c-.23-2.232.305-4.263 1.672-6.032 1.901-2.457 4.458-3.564 7.54-3.314 3.886.319 7.062 3.39 7.591 7.226a8.459 8.459 0 0 1-6.9 9.531 8.19 8.19 0 0 1-5.398-.835 1.654 1.654 0 0 0-1.318-.15c-.764.22-1.546.377-2.32.56-.086.018-.174.022-.312.04Zm10.687-2.597c.347-.054.701-.079 1.039-.167.802-.208 1.3-.808 1.748-1.45.457-.658.245-1.247-.52-1.462-.449-.127-.915-.209-1.343-.384-.73-.298-1.3-.175-1.806.457-.339.425-.65.457-1.118.183a11.345 11.345 0 0 1-3.258-2.877c-.332-.43-.303-.698.031-1.14.124-.163.293-.311.358-.496.082-.233.173-.531.091-.74a23.613 23.613 0 0 0-.92-2.09.762.762 0 0 0-1.188-.268c-.291.238-.559.503-.8.791a2.583 2.583 0 0 0-.644 1.844c.035.856.287 1.69.732 2.423 1.08 1.822 2.595 3.218 4.38 4.326.98.61 2.04.998 3.218 1.05Z" fill="#27A81A"/><path d="M20.343 22.773c-1.179-.051-2.239-.44-3.219-1.05-1.785-1.108-3.3-2.504-4.38-4.325a5.07 5.07 0 0 1-.732-2.424 2.583 2.583 0 0 1 .649-1.852c.24-.288.508-.553.8-.79a.762.762 0 0 1 1.187.267c.334.684.655 1.378.92 2.09.078.209-.013.507-.09.74-.066.183-.235.333-.358.495-.334.443-.366.71-.031 1.141a11.348 11.348 0 0 0 3.257 2.877c.47.274.78.245 1.119-.183.506-.63 1.073-.753 1.806-.457.429.175.894.257 1.342.384.766.217.98.806.52 1.463-.448.64-.945 1.24-1.748 1.45-.34.095-.695.12-1.042.174Z" fill="#fff"/></g><defs><clipPath id="a"><path fill="#fff" d="M0 0h35v35H0z"/></clipPath></defs></svg>