<svg width="36" height="36" viewBox="0 0 36 36" fill="none" xmlns="http://www.w3.org/2000/svg">
<circle cx="18" cy="18" r="18" fill="#F49725"/>
<g clip-path="url(#clip0_195_749)">
<path d="M23.0516 19.9381H22.7404C17.3431 19.9381 11.9459 19.9381 6.5486 19.9381C5.91685 19.9381 5.42619 19.6924 5.14469 19.1117C4.69658 18.1897 5.34252 17.1227 6.37347 17.0634C6.47061 17.0577 6.56846 17.0634 6.6656 17.0634H23.1091C23.014 16.9598 22.9559 16.8927 22.8963 16.8298C21.1294 15.0529 19.3627 13.2757 17.5962 11.4983C16.8992 10.7955 16.9822 9.76491 17.7664 9.24069C18.0224 9.0685 18.3274 8.98549 18.6347 9.00431C18.942 9.02314 19.2347 9.14279 19.4681 9.34496C19.5489 9.41638 19.6234 9.4878 19.6986 9.56637C22.2809 12.1623 24.8628 14.7572 27.4442 17.3512C28.1865 18.0975 28.1908 18.8946 27.4548 19.6367C24.855 22.2521 22.2551 24.8677 19.6553 27.4836C19.2256 27.9164 18.7335 28.1121 18.1401 27.9364C17.9096 27.8691 17.6999 27.7437 17.531 27.572C17.362 27.4003 17.2394 27.1881 17.1746 26.9553C17.1099 26.7225 17.1052 26.4769 17.161 26.2418C17.2168 26.0067 17.3312 25.7898 17.4934 25.6117C17.8338 25.2375 18.2025 24.8896 18.557 24.5304C19.9978 23.0815 21.4395 21.6324 22.8822 20.183C22.9446 20.1209 23.0169 20.0688 23.0842 20.0116L23.0516 19.9381Z" fill="black"/>
</g>
<defs>
<clipPath id="clip0_195_749">
<rect width="23" height="19" fill="white" transform="translate(5 9)"/>
</clipPath>
</defs>
</svg>
