<svg width="107" height="30" viewBox="0 0 107 30" fill="none" xmlns="http://www.w3.org/2000/svg">
<g clip-path="url(#clip0_4_222)">
<path d="M103.36 0H59.4788C57.4687 0 55.8391 1.63185 55.8391 3.64483V26.3552C55.8391 28.3682 57.4687 30 59.4788 30H103.36C105.37 30 107 28.3682 107 26.3552V3.64483C107 1.63185 105.37 0 103.36 0Z" fill="#F49725"/>
<path d="M12.8045 9.42L8.37503 9.36615L8.23387 21.0108L4.28834 20.9636L4.42949 9.31567L0 9.27865L0.0403301 5.95691L12.8448 6.11509L12.8045 9.42Z" fill="white"/>
<path d="M17.5029 16.5616C17.5264 18.1602 18.4372 19.0958 19.9495 19.116C20.9376 19.116 21.5291 18.7155 22.0029 17.8809L25.3402 17.9212C24.6176 20.2771 22.6079 21.5257 19.8789 21.492C16.498 21.4483 13.9842 19.2944 14.0278 15.7707C14.0682 12.3446 16.4913 9.97868 19.8924 10.0191C23.4615 10.0628 25.6057 12.4658 25.5687 16.3327V16.6491L17.5029 16.5616ZM19.8857 12.4288C18.6052 12.4119 17.7953 13.1591 17.5701 14.5255L22.0836 14.5793C21.9929 13.3374 21.2501 12.4456 19.8857 12.4288Z" fill="white"/>
<path d="M38.2388 17.1102C37.8053 19.9877 35.8863 21.6233 32.7036 21.5863C29.3664 21.5459 27.0643 19.2675 27.1046 15.902C27.1483 12.4355 29.4571 10.1301 32.9086 10.1806C35.9333 10.2176 38.0103 11.9038 38.1884 14.4716L34.7436 14.4312C34.7109 13.9724 34.5031 13.5438 34.1634 13.2343C33.8236 12.9247 33.3779 12.758 32.9187 12.7687C31.5307 12.7485 30.6972 13.9163 30.6737 15.9356C30.6502 17.8472 31.4131 18.9309 32.8212 18.9477C33.9135 18.9477 34.5722 18.3588 34.8175 17.0799L38.2388 17.1102Z" fill="white"/>
<path d="M43.7907 12.0081C44.7687 10.8638 45.6997 10.3489 47.2523 10.3691C49.5645 10.396 51.1004 11.6547 51.0702 14.2832L50.9794 21.5358L47.4338 21.4921L47.5111 15.0976C47.5111 13.9197 47.0305 13.2634 45.8106 13.25C44.2176 13.2298 43.7605 14.337 43.7437 15.8111L43.6765 21.4449L40.1779 21.3945L40.3628 6.42474L43.868 6.46849L43.7907 12.0081Z" fill="white"/>
<path d="M60.766 6.68726L66.4322 6.75456L69.0335 17.1876L71.954 6.83534L77.4757 6.90265L77.2909 21.8724L73.594 21.8286L73.9301 10.4129L70.4517 21.7882L67.4506 21.7512L64.2713 10.3085V21.7074L60.5946 21.6536L60.766 6.68726Z" fill="white"/>
<path d="M86.9665 21.9767C86.8533 21.6456 86.8009 21.2967 86.8119 20.9469C86.3303 21.3985 85.7628 21.7484 85.1432 21.9756C84.5237 22.2028 83.8648 22.3028 83.2058 22.2695C80.8533 22.2392 79.4216 20.9603 79.4451 18.8771C79.4787 16.1847 81.7304 15.8145 83.9586 15.5116C86.1263 15.1986 86.8186 15.2524 86.8321 14.2428C86.8321 13.4654 86.3011 13.0783 85.1853 13.0649C84.0695 13.0514 83.6091 13.2769 83.3436 14.4111L79.9828 14.3707C80.2416 11.9374 81.959 10.7595 85.2525 10.7999C86.617 10.8167 88.1058 11.0018 89.2283 11.8365C90.0416 12.4355 90.2634 13.1322 90.2365 14.5591L90.1828 18.9107C90.1828 19.9641 90.1559 21.0579 90.5659 22.0272L86.9665 21.9767ZM84.456 17.4905C83.5318 17.6655 83.1117 18.0828 83.1117 18.7963C83.1117 19.5973 83.6192 20.0853 84.5031 20.0987C85.6995 20.0987 86.7783 19.4257 86.7951 18.0021V16.8881C86.0424 17.1823 85.2571 17.3846 84.456 17.4905Z" fill="white"/>
<path d="M91.8497 11.1869L95.7952 11.2374L97.2975 13.8187L98.8602 11.2744L102.641 11.3215L99.1761 16.3698L102.97 22.1786L99.0451 22.1281L97.1731 18.9511L95.2777 22.0675L91.3724 22.017L95.244 16.3798L91.8497 11.1869Z" fill="white"/>
</g>
<defs>
<clipPath id="clip0_4_222">
<rect width="107" height="30" fill="white"/>
</clipPath>
</defs>
</svg>
