<svg width="190" height="54" viewBox="0 0 190 54" fill="none" xmlns="http://www.w3.org/2000/svg">
<path d="M182.884 53.2244H105.418C101.859 53.2244 99.0121 50.3989 99.0121 46.867V7.13327C99.0121 3.60139 101.859 0.775879 105.418 0.775879H182.884C186.443 0.775879 189.29 3.60139 189.29 7.13327V46.867C189.29 50.3989 186.443 53.2244 182.884 53.2244Z" fill="#F49725"/>
<path d="M23.0294 17.2582L15.1998 17.1404L14.9625 37.5076L8.02264 37.4488L8.2599 17.0816L0.430298 16.9638L0.489612 11.1362L23.148 11.4306L23.0294 17.2582Z" fill="#020203"/>
<path d="M31.3334 29.7373C31.3928 32.5039 32.9943 34.1521 35.6635 34.211C37.3836 34.211 38.4513 33.5046 39.2817 32.033L45.1539 32.0919C43.9083 36.2124 40.3494 38.4493 35.5448 38.3904C29.554 38.3315 25.1647 34.5642 25.224 28.3834C25.2833 22.3792 29.554 18.2587 35.6041 18.3175C41.8915 18.3764 45.6877 22.6146 45.6284 29.3841V29.9139L31.3334 29.7373ZM35.5448 22.4969C33.2908 22.4969 31.8673 23.7919 31.4521 26.1465L39.4003 26.2643C39.2817 24.0863 37.9767 22.5558 35.5448 22.4969Z" fill="#020203"/>
<path d="M67.9309 30.6794C67.1598 35.6829 63.7789 38.5673 58.1439 38.5084C52.2717 38.4496 48.179 34.4468 48.2383 28.5603C48.2976 22.4972 52.3904 18.4355 58.4998 18.5533C63.8382 18.6121 67.5157 21.5554 67.8123 26.088L61.7622 26.0291C61.4656 24.2043 60.2793 23.1447 58.5591 23.1447C56.1272 23.0859 54.6443 25.1461 54.585 28.678C54.5257 32.0333 55.89 33.917 58.3812 33.917C60.2793 33.917 61.4656 32.9163 61.8808 30.6794H67.9309Z" fill="#020203"/>
<path d="M77.7772 21.7906C79.4974 19.7892 81.1582 18.9062 83.8867 18.9062C87.9795 18.9651 90.6486 21.1431 90.6486 25.7345L90.4707 38.4493L84.1833 38.3904L84.3019 27.2061C84.3019 25.1459 83.4715 23.9686 81.2768 23.9686C78.489 23.9097 77.6586 25.8523 77.5993 28.4423L77.4807 38.2727L71.3119 38.2139L71.6085 12.019L77.7772 12.0779V21.7906Z" fill="#020203"/>
<path d="M107.672 12.4902L117.696 12.608L122.264 30.856L127.424 12.7257L137.152 12.8434L136.855 39.0382L130.331 38.9794L130.924 19.0242L124.814 38.9205L119.535 38.8616L113.9 18.8476V38.8028L107.376 38.6262L107.672 12.4902Z" fill="#040405"/>
<path d="M153.938 39.2145C153.701 38.5081 153.701 38.3315 153.641 37.3897C151.862 38.9791 149.964 39.7443 147.295 39.6854C143.143 39.6266 140.592 37.3897 140.651 33.7401C140.711 28.9721 144.685 28.3834 148.6 27.8536C152.396 27.3238 153.641 27.3827 153.641 25.6168C153.641 24.2629 152.692 23.5565 150.735 23.5565C148.778 23.5565 147.947 23.9097 147.473 25.9111L141.541 25.8522C142.016 21.614 145.041 19.5537 150.854 19.6126C153.286 19.6126 155.895 19.9657 157.853 21.4374C159.276 22.4969 159.692 23.6742 159.632 26.2054V33.8578C159.632 35.6826 159.573 37.6252 160.285 39.3322L153.938 39.2145ZM149.489 31.3855C147.829 31.6798 147.117 32.4451 147.117 33.6812C147.117 35.094 148.006 35.9181 149.549 35.977C151.684 35.977 153.582 34.7997 153.582 32.3273V30.3848C152.336 30.9146 150.913 31.0912 149.489 31.3855Z" fill="#040405"/>
<path d="M162.539 20.3193L169.479 20.3782L172.148 24.9108L174.936 20.4371L181.579 20.4959L175.469 29.3256L182.172 39.5092L175.232 39.4504L171.91 33.9171L168.589 39.3915L161.708 39.3327L168.529 29.4434L162.539 20.3193Z" fill="#040405"/>
</svg>
