<svg width="18" height="28" viewBox="0 0 18 28" fill="none" xmlns="http://www.w3.org/2000/svg">
<path d="M8.99203 0C11.2357 0.0017277 13.398 0.826863 15.0556 2.31389C16.7131 3.80091 17.7467 5.84276 17.9539 8.03974C18.1404 10.0281 17.7399 11.9455 17.1384 13.8266C16.0367 17.2448 14.2648 20.3334 12.1861 23.2505C11.3388 24.4403 10.4082 25.5735 9.50075 26.722C9.18452 27.1225 8.83477 27.1183 8.50995 26.7338C5.56764 23.2404 3.05584 19.4859 1.36556 15.2412C0.555219 13.208 0.0078319 11.1089 9.80185e-05 8.90845C-0.0101871 6.74098 0.789268 4.64526 2.24667 3.01922C3.70406 1.39318 5.71792 0.350047 7.90585 0.0878839C8.26504 0.0422516 8.63111 0.0278864 8.99203 0ZM13.8601 8.72254C13.7277 6.00234 11.466 3.95396 8.74712 4.0917C7.46428 4.16074 6.26137 4.72629 5.40123 5.66477C4.54109 6.60325 4.09363 7.83838 4.15663 9.10027C4.28639 11.7486 6.55672 13.7531 9.29193 13.6331C11.8587 13.5207 13.983 11.2374 13.8601 8.72254Z" fill="#F49725"/>
</svg>
