<svg width="26" height="26" viewBox="0 0 26 26" fill="none" xmlns="http://www.w3.org/2000/svg">
<g clip-path="url(#clip0_4_190)">
<path d="M12.5575 0H13.4724C13.5778 0.0262813 13.6849 0.0453349 13.793 0.0570238C15.0014 0.117343 16.1943 0.35499 17.3336 0.762333C22.6604 2.63456 26.3246 7.87515 25.9769 13.7314C25.8852 15.2839 25.5735 16.7862 24.9181 18.1914C22.8995 22.5217 19.5368 25.106 14.7981 25.8622C13.3305 26.0876 11.8339 26.0404 10.3834 25.723C7.45748 25.108 5.01784 23.6546 3.08827 21.3785C1.40662 19.4188 0.366881 16.9907 0.10935 14.4218C0.075391 14.1041 0.0366762 13.7864 0 13.4715V12.551C0.0203756 12.4274 0.0441476 12.3039 0.0597689 12.179C0.136517 11.5857 0.171835 10.9835 0.29341 10.3991C0.897208 7.50247 2.32554 5.07903 4.57229 3.1525C6.54553 1.43588 9.00258 0.372705 11.6053 0.109291C11.9231 0.0753495 12.2403 0.036657 12.5575 0ZM13.0329 19.1662L13.0377 19.2341C14.0311 19.1436 15.0243 19.053 16.0173 18.9625C17.0714 18.8781 18.0702 18.4566 18.8658 17.7603C19.6394 17.0869 20.3159 16.3192 20.5298 15.2996C20.73 14.3326 20.8513 13.3509 20.8925 12.3643C20.9299 11.5252 20.8348 10.676 20.7499 9.8363C20.6561 8.91173 20.4178 8.02789 19.8207 7.27574C19.0553 6.31112 18.1547 5.50127 16.9267 5.24874C15.8971 5.03627 14.8362 4.94463 13.7848 4.87674C12.5331 4.79596 11.2806 4.88693 10.0391 5.07293C9.39521 5.16932 8.75338 5.27114 8.17063 5.59427C6.3212 6.61524 5.35743 8.17994 5.21413 10.2809C5.14621 11.2707 5.06063 12.2584 5.17881 13.244C5.2705 14.0132 5.32687 14.8094 5.57817 15.531C6.10454 17.0408 7.21162 18.0495 8.68071 18.6584C8.86205 18.7331 8.9483 18.8044 8.93948 19.0155C8.91978 19.4465 8.93268 19.879 8.93336 20.3107C8.93336 20.7302 9.07939 20.9895 9.39589 21.1049C9.74567 21.236 10.016 21.1049 10.2578 20.8477C10.7468 20.3311 11.2385 19.8172 11.7425 19.3149C11.839 19.2296 11.961 19.1787 12.0896 19.1703C12.4013 19.1526 12.7158 19.1662 13.0295 19.1662H13.0329Z" fill="#6F3EAA"/>
<path d="M13.0295 19.1662C12.7157 19.1662 12.4013 19.1526 12.0895 19.1723C11.961 19.1807 11.8389 19.2316 11.7425 19.3169C11.2385 19.8192 10.7468 20.3351 10.2578 20.8497C10.016 21.1043 9.74566 21.238 9.39588 21.107C9.07937 20.9882 8.93471 20.7323 8.93335 20.3127C8.93335 19.881 8.91977 19.4486 8.93946 19.0175C8.94829 18.8064 8.86204 18.7351 8.68069 18.6605C7.21161 18.0495 6.10453 17.0428 5.57816 15.5331C5.32686 14.8115 5.27049 14.0152 5.1788 13.2461C5.06062 12.2604 5.1462 11.2727 5.21412 10.283C5.35742 8.1786 6.32119 6.61728 8.16723 5.59428C8.74997 5.27115 9.38976 5.16933 10.0357 5.07293C11.2772 4.88693 12.5297 4.79597 13.7814 4.87675C14.8328 4.94463 15.8937 5.03628 16.9233 5.24875C18.1513 5.50128 19.0519 6.31112 19.8173 7.27575C20.4143 8.02789 20.6527 8.91174 20.7465 9.83631C20.8314 10.676 20.9265 11.5252 20.8891 12.3643C20.8479 13.3509 20.7266 14.3326 20.5264 15.2996C20.3125 16.3178 19.636 17.0869 18.8624 17.7603C18.0668 18.4566 17.068 18.8781 16.0139 18.9625C15.0209 19.0531 14.0277 19.1436 13.0343 19.2341L13.0295 19.1662ZM9.57043 18.9177C9.57043 19.3664 9.56703 19.8152 9.5745 20.2639C9.57587 20.2987 9.58442 20.3329 9.59962 20.3644C9.61481 20.3958 9.63631 20.4237 9.6628 20.4465C9.69132 20.4668 9.78301 20.4173 9.83395 20.3786C9.89306 20.3303 9.94762 20.2766 9.99696 20.2184C10.7536 19.4425 11.5061 18.6625 12.2702 17.8934C12.3696 17.7975 12.4977 17.7369 12.6349 17.721C13.6795 17.6415 14.7261 17.5811 15.7714 17.5105C16.9872 17.4297 17.917 16.8317 18.624 15.8766C18.8518 15.5831 19.0219 15.2491 19.1252 14.8923C19.2584 14.3253 19.3492 13.7491 19.3969 13.1687C19.5232 11.9149 19.3969 10.674 19.2088 9.43104C19.0166 8.1623 17.5427 6.80124 16.5022 6.64036C15.5351 6.49034 14.5584 6.38105 13.5817 6.32402C12.3381 6.26126 11.0913 6.34488 9.86723 6.57315C8.40766 6.83315 7.42216 7.70816 6.92635 9.0733C6.7158 9.6571 6.66146 10.3149 6.63634 10.9435C6.60168 11.8316 6.61891 12.7211 6.68795 13.6072C6.73074 14.1645 6.81496 14.7511 7.03774 15.2554C7.486 16.2737 8.28608 16.9695 9.3395 17.3476C9.52085 17.4155 9.57518 17.5003 9.57179 17.6762C9.565 18.0875 9.56975 18.503 9.57043 18.9177Z" fill="white"/>
<path d="M9.57043 18.9177C9.57043 18.5029 9.565 18.0882 9.57043 17.6734C9.57043 17.4976 9.51949 17.41 9.33815 17.3449C8.28473 16.9667 7.48464 16.2675 7.03638 15.2527C6.81361 14.7483 6.72939 14.1618 6.6866 13.6045C6.61802 12.7203 6.60101 11.833 6.63566 10.9469C6.66079 10.3183 6.71512 9.66046 6.92567 9.07667C7.42012 7.71153 8.40698 6.83651 9.86656 6.57652C11.0907 6.34824 12.3374 6.26463 13.581 6.32739C14.5577 6.38441 15.5344 6.4937 16.5015 6.64373C17.5421 6.80461 19.0145 8.16567 19.2081 9.43441C19.3969 10.6774 19.5226 11.9183 19.3962 13.1721C19.3485 13.7525 19.2577 14.3286 19.1246 14.8956C19.0212 15.2524 18.8511 15.5864 18.6233 15.8799C17.9163 16.8357 16.9865 17.4331 15.7707 17.5139C14.7255 17.5818 13.6788 17.6449 12.6342 17.7243C12.4971 17.7403 12.3689 17.8009 12.2695 17.8967C11.5054 18.6659 10.7529 19.4458 9.99628 20.2218C9.94695 20.28 9.89239 20.3336 9.83328 20.382C9.78234 20.4173 9.69065 20.4668 9.66212 20.4498C9.63564 20.4271 9.61413 20.3992 9.59894 20.3677C9.58375 20.3363 9.5752 20.3021 9.57383 20.2672C9.56703 19.8151 9.57043 19.3664 9.57043 18.9177ZM13.6231 14.026C13.564 14.023 13.5051 14.0169 13.4466 14.0077C13.3887 13.9957 13.3321 13.9784 13.2774 13.9561C12.1948 13.5339 11.5156 12.7342 11.1278 11.661C11.0893 11.5704 11.0818 11.4696 11.1063 11.3743C11.1309 11.2789 11.1862 11.1943 11.2636 11.1335C11.3465 11.0609 11.4328 10.9923 11.5183 10.9231C11.8247 10.6733 11.9184 10.3502 11.7092 10.0257C11.3934 9.53624 11.0429 9.06852 10.6904 8.6042C10.5369 8.40055 10.3046 8.35846 10.071 8.46028C9.61993 8.64505 9.24609 8.97914 9.01214 9.40658C8.94142 9.52268 8.9009 9.65462 8.89425 9.79038C8.88761 9.92614 8.91506 10.0614 8.9741 10.1838C9.1242 10.5049 9.24985 10.8376 9.39588 11.1614C10.503 13.6153 12.4101 15.1909 14.8762 16.1576C15.2369 16.2988 15.5717 16.2662 15.8448 16.0218C16.122 15.7779 16.3669 15.4996 16.5735 15.1936C16.7929 14.8617 16.7304 14.6207 16.4119 14.379C15.9894 14.0552 15.5493 13.7531 15.114 13.4456C15.0518 13.4036 14.9829 13.3726 14.9102 13.354C14.5618 13.261 14.3275 13.4348 14.1325 13.6934C13.9987 13.8645 13.8751 14.0417 13.6231 14.026ZM13.1477 7.96134C13.0798 7.96134 12.999 7.93758 12.944 7.96677C12.8409 8.03322 12.7433 8.10767 12.6519 8.18943C12.7375 8.27564 12.8095 8.39308 12.9134 8.43992C13.0316 8.49219 13.1776 8.48676 13.3128 8.49559C14.0568 8.54863 14.7614 8.84997 15.3136 9.35124C15.8657 9.85251 16.2334 10.5247 16.3576 11.2598C16.4051 11.551 16.4255 11.847 16.4533 12.1423C16.4703 12.312 16.5362 12.4532 16.725 12.4416C16.8996 12.4315 16.9607 12.2964 16.9444 12.1307C16.9104 11.7913 16.8921 11.4567 16.8371 11.124C16.5538 9.393 14.9061 7.9851 13.147 7.96134H13.1477ZM15.9324 11.5924L15.986 11.5768C15.8814 11.2157 15.8217 10.8301 15.6634 10.4961C15.2029 9.51587 14.373 9.06309 13.3209 8.98095C13.075 8.96194 12.9249 9.14251 13.0329 9.31154C13.065 9.35301 13.105 9.38769 13.1506 9.41356C13.1962 9.43943 13.2464 9.45598 13.2985 9.46224C14.7683 9.61362 15.4529 10.6108 15.4434 11.7397C15.4434 11.904 15.5154 12.035 15.6865 12.0371C15.8577 12.0391 15.9324 11.9115 15.9324 11.7445V11.5924ZM14.9211 11.3528C14.8878 10.5871 14.3709 10.063 13.6265 10.0393C13.4663 10.0331 13.3297 10.0576 13.308 10.2429C13.2849 10.4404 13.4221 10.5056 13.5871 10.5307C14.159 10.6203 14.3383 10.7968 14.4307 11.3847C14.4565 11.5558 14.517 11.7112 14.7234 11.6956C14.9299 11.68 14.9272 11.511 14.9184 11.3528H14.9211Z" fill="#6F3EAA"/>
<path d="M13.6232 14.026C13.8752 14.0417 13.9988 13.8645 14.1265 13.6934C14.3214 13.4314 14.5557 13.2576 14.9041 13.354C14.9768 13.3726 15.0457 13.4036 15.1079 13.4456C15.5432 13.7531 15.9834 14.0566 16.4058 14.379C16.7244 14.6234 16.7868 14.8644 16.5675 15.1936C16.3608 15.4996 16.1159 15.7779 15.8387 16.0218C15.567 16.2669 15.2308 16.2995 14.8702 16.1576C12.404 15.1909 10.4969 13.6153 9.38981 11.1614C9.24378 10.8376 9.11813 10.5049 8.96803 10.1838C8.90899 10.0614 8.88154 9.92614 8.88818 9.79038C8.89482 9.65462 8.93535 9.52268 9.00606 9.40658C9.24002 8.97914 9.61385 8.64505 10.0649 8.46028C10.2986 8.35846 10.5308 8.40122 10.6843 8.6042C11.0362 9.06852 11.3866 9.53623 11.7031 10.0257C11.9123 10.3502 11.8186 10.6733 11.5123 10.9231C11.4267 10.991 11.3404 11.0589 11.2576 11.1335C11.1801 11.1943 11.1248 11.2789 11.1003 11.3743C11.0757 11.4696 11.0833 11.5704 11.1217 11.661C11.5096 12.7335 12.1887 13.5339 13.2714 13.9561C13.3261 13.9784 13.3827 13.9957 13.4405 14.0077C13.501 14.0171 13.562 14.0232 13.6232 14.026Z" fill="white"/>
<path d="M13.147 7.96206C14.9034 7.98514 16.5538 9.39304 16.8391 11.1227C16.8941 11.4553 16.9124 11.7934 16.9464 12.1294C16.9627 12.2951 16.9016 12.4301 16.727 12.4403C16.5389 12.4519 16.473 12.3107 16.4553 12.141C16.4268 11.847 16.4071 11.5511 16.3596 11.2585C16.2354 10.5233 15.8678 9.85119 15.3156 9.34992C14.7635 8.84865 14.0588 8.54731 13.3148 8.49426C13.1789 8.48544 13.0336 8.49087 12.9154 8.4386C12.8115 8.39244 12.7395 8.27432 12.6539 8.18811C12.7453 8.10635 12.8429 8.0319 12.946 7.96545C12.9983 7.93762 13.0798 7.96138 13.147 7.96206Z" fill="white"/>
<path d="M15.9297 11.5925V11.7445C15.9297 11.9115 15.855 12.0385 15.6838 12.0371C15.5127 12.0357 15.4393 11.9013 15.4407 11.7398C15.4502 10.6109 14.7656 9.61367 13.2958 9.46229C13.2437 9.45603 13.1935 9.43948 13.1479 9.41361C13.1023 9.38773 13.0623 9.35305 13.0302 9.31159C12.9222 9.14256 13.0723 8.96199 13.3182 8.981C14.3703 9.06313 15.2002 9.51592 15.6607 10.4962C15.819 10.8356 15.8787 11.2157 15.9833 11.5769L15.9297 11.5925Z" fill="white"/>
<path d="M14.9184 11.3528C14.9272 11.511 14.9319 11.6793 14.7207 11.6956C14.5095 11.7119 14.4538 11.5558 14.428 11.3847C14.3383 10.7968 14.1604 10.6169 13.5844 10.53C13.4194 10.5049 13.2822 10.4398 13.3053 10.2422C13.327 10.0576 13.4635 10.0331 13.6238 10.0386C14.3682 10.0657 14.8851 10.5871 14.9184 11.3528Z" fill="white"/>
</g>
<defs>
<clipPath id="clip0_4_190">
<rect width="26" height="26" fill="white"/>
</clipPath>
</defs>
</svg>
