<svg width="35" height="35" viewBox="0 0 35 35" fill="none" xmlns="http://www.w3.org/2000/svg">
<g clip-path="url(#clip0_2_360)">
<path d="M16.9043 0H18.1359C18.2778 0.0353787 18.422 0.0610277 18.5674 0.0767629C20.1942 0.157961 21.8001 0.477871 23.3336 1.02622C30.5044 3.54652 35.437 10.6012 34.9689 18.4846C34.8455 20.5745 34.4258 22.5968 33.5435 24.4884C30.8263 30.3176 26.2996 33.7965 19.9206 34.8145C17.945 35.1179 15.9303 35.0544 13.9777 34.6272C10.0389 33.7993 6.75479 31.8428 4.15728 28.7788C1.89352 26.1407 0.493878 22.8721 0.147202 19.414C0.101488 18.9863 0.0493718 18.5587 0 18.1346V16.8955C0.0274288 16.7292 0.0594294 16.5629 0.0804581 16.3947C0.183773 15.5961 0.231316 14.7855 0.394975 13.9987C1.20778 10.0995 3.13053 6.83716 6.15501 4.24375C8.81129 1.93292 12.1189 0.501718 15.6225 0.147123C16.0504 0.101432 16.4774 0.049346 16.9043 0ZM17.5443 25.8006L17.5507 25.892C18.888 25.7702 20.225 25.6483 21.5617 25.5265C22.9807 25.4129 24.3253 24.8454 25.3963 23.9081C26.4377 23.0016 27.3483 21.9681 27.6363 20.5955C27.9058 19.2938 28.0691 17.9724 28.1245 16.6442C28.1748 15.5147 28.0468 14.3716 27.9325 13.2412C27.8064 11.9966 27.4854 10.8068 26.6818 9.79426C25.6514 8.49573 24.439 7.40555 22.786 7.06561C21.3999 6.77959 19.9718 6.65623 18.5565 6.56485C16.8714 6.4561 15.1855 6.57855 13.5141 6.82894C12.6474 6.9587 11.7834 7.09577 10.9989 7.53075C8.50931 8.90512 7.21193 11.0115 7.01902 13.8397C6.92759 15.1721 6.81239 16.5017 6.97148 17.8285C7.09491 18.8639 7.17079 19.9358 7.50908 20.9072C8.21765 22.9395 9.70795 24.2974 11.6856 25.1171C11.9297 25.2176 12.0458 25.3136 12.0339 25.5978C12.0074 26.178 12.0248 26.7601 12.0257 27.3413C12.0257 27.9061 12.2223 28.2551 12.6483 28.4105C13.1192 28.5869 13.4831 28.4105 13.8085 28.0642C14.4668 27.3687 15.1288 26.677 15.8072 26.0008C15.9371 25.886 16.1014 25.8175 16.2744 25.8061C16.6941 25.7824 17.1174 25.8006 17.5398 25.8006H17.5443Z" fill="#6F3EAA"/>
<path d="M17.5398 25.8005C17.1174 25.8005 16.6941 25.7822 16.2744 25.8087C16.1014 25.8201 15.937 25.8886 15.8072 26.0034C15.1288 26.6796 14.4668 27.3741 13.8085 28.0668C13.4831 28.4095 13.1192 28.5895 12.6483 28.4131C12.2222 28.2532 12.0275 27.9087 12.0257 27.3439C12.0257 26.7628 12.0074 26.1807 12.0339 25.6004C12.0458 25.3162 11.9297 25.2202 11.6856 25.1197C9.70795 24.2973 8.21765 22.9421 7.50907 20.9098C7.17078 19.9384 7.0949 18.8665 6.97147 17.8311C6.81239 16.5043 6.92758 15.1747 7.01901 13.8423C7.21193 11.0095 8.50931 8.90775 10.9944 7.53063C11.7788 7.09565 12.6401 6.95858 13.5096 6.82882C15.1809 6.57843 16.8668 6.45598 18.5519 6.56473C19.9672 6.65611 21.3953 6.77947 22.7814 7.06549C24.4344 7.40543 25.6468 8.49561 26.6772 9.79414C27.4809 10.8066 27.8018 11.9964 27.9279 13.2411C28.0422 14.3714 28.1702 15.5146 28.12 16.6441C28.0645 17.9722 27.9012 19.2937 27.6317 20.5954C27.3437 21.9661 26.4331 23.0015 25.3917 23.908C24.3207 24.8452 22.9761 25.4127 21.5572 25.5264C20.2205 25.6482 18.8835 25.7701 17.5462 25.8919L17.5398 25.8005ZM12.8833 25.4661C12.8833 26.0701 12.8787 26.6741 12.8888 27.2781C12.8906 27.3251 12.9021 27.3711 12.9226 27.4134C12.943 27.4557 12.972 27.4934 13.0076 27.524C13.046 27.5514 13.1695 27.4847 13.238 27.4326C13.3176 27.3675 13.391 27.2954 13.4575 27.2169C14.476 26.1724 15.489 25.1225 16.5176 24.0871C16.6514 23.9581 16.8239 23.8765 17.0086 23.855C18.4147 23.7481 19.8237 23.6668 21.2308 23.5717C22.8673 23.463 24.119 22.6579 25.0708 21.3722C25.3775 20.9771 25.6064 20.5275 25.7455 20.0471C25.9248 19.2839 26.047 18.5083 26.1113 17.727C26.2813 16.0391 26.1112 14.3687 25.858 12.6955C25.5992 10.9876 23.6152 9.15539 22.2145 8.93881C20.9126 8.73686 19.5978 8.58974 18.2831 8.51298C16.6089 8.42849 14.9307 8.54105 13.2828 8.84835C11.318 9.19834 9.99138 10.3762 9.32394 12.2139C9.04051 12.9998 8.96737 13.8853 8.93354 14.7315C8.88688 15.9271 8.91009 17.1244 9.00303 18.3173C9.06063 19.0675 9.174 19.8571 9.47389 20.536C10.0773 21.9068 11.1544 22.8434 12.5724 23.3524C12.8165 23.4438 12.8897 23.558 12.8851 23.7947C12.876 24.3485 12.8824 24.9077 12.8833 25.4661Z" fill="white"/>
<path d="M12.8833 25.4659C12.8833 24.9076 12.876 24.3493 12.8833 23.7909C12.8833 23.5542 12.8147 23.4364 12.5706 23.3486C11.1525 22.8396 10.0755 21.8984 9.47205 20.5323C9.17216 19.8533 9.05879 19.0638 9.00119 18.3135C8.90887 17.1233 8.88598 15.9288 8.93262 14.7359C8.96644 13.8897 9.03959 13.0043 9.32302 12.2184C9.98862 10.3807 11.3171 9.20279 13.2819 8.8528C14.9297 8.5455 16.608 8.43294 18.2822 8.51743C19.5969 8.59419 20.9117 8.74131 22.2136 8.94326C23.6143 9.15984 25.5965 10.992 25.8571 12.7C26.1112 14.3732 26.2804 16.0436 26.1103 17.7314C26.0461 18.5128 25.9239 19.2883 25.7446 20.0516C25.6055 20.5319 25.3765 20.9815 25.0699 21.3766C24.1181 22.6633 22.8664 23.4674 21.2298 23.5762C19.8227 23.6676 18.4138 23.7525 17.0076 23.8595C16.823 23.881 16.6505 23.9625 16.5167 24.0916C15.4881 25.1269 14.4751 26.1769 13.4565 27.2214C13.3901 27.2998 13.3167 27.372 13.2371 27.437C13.1685 27.4846 13.0451 27.5513 13.0067 27.5284C12.971 27.4978 12.9421 27.4602 12.9216 27.4179C12.9012 27.3756 12.8897 27.3295 12.8878 27.2826C12.8787 26.674 12.8833 26.07 12.8833 25.4659ZM18.3388 18.881C18.2592 18.8769 18.1799 18.8687 18.1011 18.8563C18.0233 18.8401 17.9471 18.8169 17.8735 18.7869C16.4161 18.2185 15.5018 17.142 14.9797 15.6973C14.9279 15.5753 14.9178 15.4396 14.9508 15.3113C14.9839 15.1829 15.0583 15.0691 15.1626 14.9872C15.2741 14.8895 15.3903 14.7972 15.5055 14.704C15.9178 14.3677 16.044 13.9327 15.7624 13.4959C15.3372 12.837 14.8655 12.2074 14.3909 11.5824C14.1843 11.3082 13.8716 11.2516 13.5571 11.3886C12.9499 11.6374 12.4467 12.0871 12.1317 12.6625C12.0365 12.8188 11.982 12.9964 11.973 13.1791C11.9641 13.3619 12.001 13.544 12.0805 13.7088C12.2826 14.141 12.4517 14.5888 12.6483 15.0247C14.1386 18.3281 16.7059 20.4491 20.0257 21.7504C20.5112 21.9404 20.962 21.8966 21.3295 21.5676C21.7027 21.2393 22.0324 20.8646 22.3105 20.4528C22.6059 20.0059 22.5217 19.6815 22.0929 19.3562C21.5242 18.9203 20.9318 18.5136 20.3457 18.0997C20.2621 18.0431 20.1693 18.0014 20.0714 17.9763C19.6024 17.8511 19.287 18.0851 19.0246 18.4332C18.8445 18.6635 18.6781 18.902 18.3388 18.881ZM17.6988 10.717C17.6074 10.717 17.4986 10.685 17.4246 10.7243C17.2858 10.8137 17.1544 10.914 17.0314 11.024C17.1466 11.1401 17.2435 11.2982 17.3834 11.3612C17.5425 11.4316 17.7391 11.4243 17.921 11.4362C18.9226 11.5076 19.8712 11.9132 20.6144 12.588C21.3577 13.2628 21.8527 14.1676 22.0198 15.1572C22.0838 15.5492 22.1112 15.9476 22.1487 16.3452C22.1716 16.5736 22.2603 16.7637 22.5144 16.7482C22.7494 16.7344 22.8317 16.5526 22.8097 16.3296C22.764 15.8727 22.7393 15.4222 22.6653 14.9744C22.284 12.6442 20.0659 10.749 17.6979 10.717H17.6988ZM21.4474 15.605L21.5197 15.584C21.3789 15.0978 21.2984 14.5788 21.0854 14.1292C20.4655 12.8096 19.3482 12.2001 17.932 12.0895C17.601 12.0639 17.399 12.307 17.5443 12.5346C17.5875 12.5904 17.6413 12.6371 17.7027 12.6719C17.7641 12.7067 17.8318 12.729 17.9018 12.7374C19.8803 12.9412 20.802 14.2836 20.7892 15.8033C20.7892 16.0244 20.8861 16.2008 21.1165 16.2035C21.3469 16.2063 21.4474 16.0345 21.4474 15.8097V15.605ZM20.0861 15.2824C20.0413 14.2516 19.3455 13.5461 18.3434 13.5142C18.1276 13.5059 17.9439 13.5388 17.9146 13.7883C17.8835 14.0542 18.0682 14.142 18.2904 14.1758C19.0602 14.2964 19.3016 14.534 19.4259 15.3253C19.4607 15.5556 19.5421 15.7649 19.82 15.7439C20.0979 15.7229 20.0943 15.4953 20.0824 15.2824H20.0861Z" fill="#6F3EAA"/>
<path d="M18.3389 18.8813C18.6781 18.9023 18.8445 18.6638 19.0163 18.4335C19.2787 18.0808 19.5942 17.8468 20.0632 17.9766C20.1611 18.0016 20.2538 18.0434 20.3375 18.0999C20.9236 18.5139 21.516 18.9224 22.0847 19.3564C22.5135 19.6854 22.5976 20.0098 22.3023 20.453C22.0241 20.8649 21.6944 21.2395 21.3213 21.5679C20.9556 21.8978 20.503 21.9416 20.0175 21.7506C16.6977 20.4494 14.1304 18.3284 12.6401 15.025C12.4435 14.5891 12.2744 14.1413 12.0723 13.7091C11.9928 13.5442 11.9559 13.3622 11.9648 13.1794C11.9738 12.9966 12.0283 12.819 12.1235 12.6627C12.4384 12.0873 12.9417 11.6376 13.5489 11.3889C13.8634 11.2518 14.1761 11.3094 14.3827 11.5826C14.8563 12.2077 15.3281 12.8373 15.7542 13.4961C16.0358 13.9329 15.9096 14.3679 15.4972 14.7042C15.382 14.7956 15.2659 14.887 15.1544 14.9875C15.0501 15.0693 14.9757 15.1832 14.9426 15.3115C14.9096 15.4399 14.9197 15.5755 14.9715 15.6975C15.4936 17.1414 16.4079 18.2187 17.8653 18.7871C17.9389 18.8171 18.0151 18.8404 18.0929 18.8566C18.1744 18.8693 18.2565 18.8775 18.3389 18.8813Z" fill="white"/>
<path d="M17.698 10.7182C20.0623 10.7492 22.284 12.6445 22.668 14.9729C22.7421 15.4207 22.7668 15.8757 22.8125 16.3281C22.8344 16.5511 22.7522 16.7329 22.5172 16.7466C22.2639 16.7621 22.1752 16.5721 22.1515 16.3436C22.1131 15.9479 22.0866 15.5495 22.0226 15.1557C21.8554 14.166 21.3605 13.2612 20.6172 12.5865C19.8739 11.9117 18.9254 11.506 17.9238 11.4346C17.7409 11.4227 17.5453 11.43 17.3862 11.3597C17.2463 11.2975 17.1494 11.1385 17.0342 11.0225C17.1572 10.9124 17.2886 10.8122 17.4273 10.7227C17.4977 10.6853 17.6074 10.7173 17.698 10.7182Z" fill="white"/>
<path d="M21.4438 15.6052V15.8099C21.4438 16.0347 21.3432 16.2056 21.1128 16.2037C20.8824 16.2019 20.7837 16.021 20.7855 15.8035C20.7983 14.2838 19.8767 12.9414 17.8982 12.7376C17.8281 12.7292 17.7604 12.7069 17.699 12.6721C17.6377 12.6373 17.5838 12.5906 17.5407 12.5348C17.3953 12.3072 17.5974 12.0642 17.9283 12.0898C19.3446 12.2003 20.4618 12.8098 21.0817 14.1294C21.2948 14.5863 21.3752 15.098 21.516 15.5842L21.4438 15.6052Z" fill="white"/>
<path d="M20.0824 15.2827C20.0943 15.4957 20.1007 15.7223 19.8163 15.7442C19.532 15.7661 19.457 15.556 19.4223 15.3257C19.3016 14.5343 19.0621 14.2922 18.2867 14.1752C18.0646 14.1414 17.8799 14.0537 17.911 13.7877C17.9402 13.5392 18.124 13.5063 18.3398 13.5136C19.3418 13.5501 20.0376 14.2519 20.0824 15.2827Z" fill="white"/>
</g>
<defs>
<clipPath id="clip0_2_360">
<rect width="35" height="35" fill="white"/>
</clipPath>
</defs>
</svg>
