<svg width="26" height="26" viewBox="0 0 26 26" fill="none" xmlns="http://www.w3.org/2000/svg">
<g clip-path="url(#clip0_4_198)">
<path d="M12.5536 0H13.4682C13.5754 0.0183319 13.6827 0.0400585 13.7907 0.0556745C14.5504 0.164987 15.3258 0.209798 16.0679 0.39108C22.8011 2.03755 27.1349 8.64177 25.7383 15.5943C24.3973 22.2623 18.1265 26.7469 11.379 25.9002C9.03932 25.6055 6.91894 24.7412 5.0647 23.2753C2.19882 21.0097 0.531303 18.063 0.108312 14.4251C0.0709693 14.1074 0.0363434 13.789 0.0010376 13.4712V12.5532C0.0207274 12.4209 0.0438109 12.2885 0.059427 12.1554C0.117817 11.6611 0.143619 11.1607 0.234599 10.6719C0.678637 8.27989 1.70115 6.16086 3.3354 4.35755C5.54744 1.9167 8.29179 0.487492 11.5752 0.109991C11.9004 0.0719697 12.227 0.0366637 12.5536 0ZM13.0044 4.8206C12.4857 4.88849 11.9616 4.92176 11.4496 5.02021C10.2421 5.2577 9.10468 5.76753 8.12391 6.5109C7.14314 7.25427 6.34488 8.21159 5.78989 9.30999C5.23489 10.4084 4.93779 11.6189 4.92119 12.8495C4.90459 14.08 5.16893 15.2981 5.6941 16.4111C5.75137 16.5474 5.76742 16.6975 5.74026 16.8429C5.49244 18.0929 5.22969 19.3401 4.97508 20.5887C4.87867 21.0606 5.0518 21.2242 5.51825 21.1135C6.73358 20.8263 7.94824 20.5337 9.16561 20.2553C9.30847 20.2224 9.45795 20.233 9.59471 20.2859C11.2357 21.0198 12.9311 21.229 14.6944 20.8542C16.7333 20.4219 18.5263 19.2183 19.6987 17.495C20.8711 15.7717 21.3322 13.662 20.9856 11.6068C20.3182 7.67426 16.9716 4.86541 13.0044 4.81992V4.8206Z" fill="#27A81A"/>
<path d="M13.0041 4.81995C16.9712 4.86544 20.3178 7.67157 20.9873 11.6095C21.3329 13.6644 20.8712 15.7733 19.6988 17.4958C18.5263 19.2184 16.7337 20.4214 14.6954 20.8535C12.9301 21.2283 11.2367 21.0192 9.5957 20.2852C9.45895 20.2323 9.30947 20.2217 9.1666 20.2547C7.94923 20.5331 6.73457 20.8257 5.51924 21.1129C5.05076 21.2236 4.87762 21.0599 4.97607 20.5881C5.23068 19.3395 5.49344 18.0922 5.74126 16.8422C5.76841 16.6969 5.75236 16.5468 5.69509 16.4104C5.16993 15.2975 4.90558 14.0793 4.92218 12.8488C4.93878 11.6183 5.23589 10.4077 5.79088 9.30934C6.34588 8.21094 7.14413 7.25362 8.1249 6.51025C9.10567 5.76688 10.2431 5.25705 11.4506 5.01956C11.9612 4.92043 12.4853 4.88513 13.0041 4.81995ZM7.17318 18.8459C7.27571 18.8323 7.34088 18.8296 7.40335 18.8153C7.97842 18.6795 8.55757 18.5627 9.12654 18.4005C9.28897 18.3503 9.46004 18.3345 9.62892 18.3539C9.79779 18.3733 9.9608 18.4275 10.1076 18.5132C11.3338 19.1724 12.7489 19.3912 14.1169 19.133C15.7234 18.8494 17.1567 17.952 18.1136 16.6307C19.0705 15.3094 19.476 13.6678 19.2444 12.0529C18.8513 9.20126 16.4919 6.922 13.6049 6.68504C11.3155 6.49765 9.41646 7.3219 8.00423 9.14694C6.98579 10.4594 6.59064 11.9687 6.76173 13.6281C6.85053 14.471 7.1102 15.2869 7.52488 16.0261C7.64621 16.2369 7.67916 16.4871 7.61654 16.7221C7.45766 17.4133 7.32527 18.1071 7.17318 18.8459Z" fill="white"/>
<path d="M7.17322 18.8458C7.3253 18.1071 7.4577 17.4112 7.61521 16.7207C7.67784 16.4857 7.64489 16.2355 7.52356 16.0247C7.10887 15.2855 6.8492 14.4696 6.76041 13.6267C6.58931 11.9686 6.98718 10.4593 8.0029 9.14553C9.41513 7.32049 11.3142 6.4976 13.6036 6.68363C16.4905 6.92059 18.8499 9.20188 19.243 12.0515C19.4747 13.6661 19.0694 15.3076 18.1128 16.6289C17.1561 17.9502 15.7232 18.8477 14.1169 19.1316C12.7489 19.3898 11.3338 19.171 10.1077 18.5117C9.96092 18.4265 9.79809 18.3726 9.62946 18.3534C9.46084 18.3343 9.29007 18.3503 9.12793 18.4004C8.56032 18.5627 7.97982 18.6801 7.40474 18.8152C7.34092 18.8295 7.27574 18.8322 7.17322 18.8458ZM15.1123 16.9169C15.3696 16.8768 15.633 16.8585 15.8836 16.7933C16.4797 16.6385 16.849 16.1931 17.1824 15.7165C17.5219 15.227 17.3644 14.7897 16.7954 14.6301C16.4627 14.5358 16.1164 14.4747 15.7987 14.345C15.2555 14.123 14.8325 14.2146 14.4571 14.6845C14.2052 14.9995 13.9743 15.0239 13.626 14.8203C12.6892 14.2704 11.8676 13.5446 11.2062 12.6829C10.9598 12.3631 10.9808 12.1642 11.2293 11.8356C11.321 11.7147 11.4466 11.6047 11.4948 11.4676C11.5559 11.2944 11.6238 11.0731 11.5627 10.9183C11.3651 10.3887 11.1268 9.87337 10.879 9.36551C10.8429 9.28553 10.7887 9.21502 10.7208 9.15955C10.6528 9.10408 10.5729 9.06517 10.4873 9.04588C10.4017 9.02659 10.3128 9.02745 10.2276 9.04839C10.1424 9.06934 10.0632 9.1098 9.99632 9.16658C9.78033 9.3433 9.58142 9.53993 9.40223 9.75388C9.06985 10.1302 8.89825 10.6219 8.92425 11.1233C8.95008 11.7598 9.13697 12.3793 9.46741 12.9239C10.2706 14.2771 11.3957 15.3139 12.7217 16.1374C13.4488 16.5903 14.2364 16.8789 15.1123 16.9169Z" fill="#27A81A"/>
<path d="M15.1122 16.9169C14.2364 16.8789 13.4488 16.5903 12.7209 16.1375C11.3949 15.3139 10.2699 14.2771 9.46669 12.924C9.13625 12.3794 8.94936 11.7598 8.92353 11.1234C8.89683 10.6194 9.06978 10.1252 9.40491 9.7478C9.5841 9.53385 9.78301 9.33722 9.999 9.1605C10.0659 9.10372 10.1451 9.06326 10.2302 9.04231C10.3154 9.02137 10.4043 9.02051 10.4899 9.0398C10.5755 9.05909 10.6555 9.098 10.7234 9.15347C10.7914 9.20894 10.8456 9.27945 10.8816 9.35943C11.1295 9.86729 11.3678 10.3826 11.5654 10.9122C11.6231 11.067 11.5552 11.2884 11.4975 11.4615C11.4492 11.5973 11.3236 11.7086 11.232 11.8295C10.9835 12.1581 10.9604 12.357 11.2089 12.6768C11.8702 13.5385 12.6919 14.2643 13.6287 14.8142C13.977 15.0179 14.2079 14.9961 14.4597 14.6784C14.8352 14.2106 15.2568 14.1189 15.8014 14.3389C16.1198 14.4686 16.4654 14.5297 16.7981 14.6241C17.367 14.785 17.5266 15.2222 17.1851 15.7104C16.8517 16.1857 16.4824 16.6324 15.8862 16.7872C15.633 16.8585 15.3695 16.8769 15.1122 16.9169Z" fill="white"/>
</g>
<defs>
<clipPath id="clip0_4_198">
<rect width="26" height="26" fill="white"/>
</clipPath>
</defs>
</svg>
