<svg width="35" height="35" viewBox="0 0 35 35" fill="none" xmlns="http://www.w3.org/2000/svg">
<g clip-path="url(#clip0_2_346)">
<path d="M16.8991 0H18.1302C18.2746 0.0246775 18.419 0.0539249 18.5643 0.0749464C19.5871 0.222097 20.6308 0.28242 21.6298 0.526453C30.6938 2.74286 36.5277 11.6332 34.6477 20.9923C32.8426 29.9685 24.401 36.0054 15.3179 34.8656C12.1683 34.469 9.31393 33.3055 6.81785 31.3322C2.95993 28.2822 0.715191 24.3156 0.145781 19.4184C0.0955121 18.9907 0.0489003 18.562 0.00137329 18.1343V16.8986C0.0278788 16.7204 0.0589528 16.5421 0.0799743 16.363C0.158577 15.6976 0.19331 15.024 0.315783 14.366C0.913527 11.146 2.28998 8.29347 4.48993 5.86593C7.46769 2.58017 11.162 0.656239 15.582 0.148065C16.0198 0.0968823 16.4594 0.049355 16.8991 0ZM17.5059 6.48927C16.8077 6.58067 16.1021 6.62545 15.4129 6.75798C13.7874 7.07768 12.2563 7.76399 10.936 8.76468C9.61574 9.76537 8.54117 11.0541 7.79406 12.5327C7.04695 14.0113 6.647 15.6409 6.62466 17.2974C6.60231 18.9538 6.95815 20.5936 7.6651 22.0918C7.7422 22.2754 7.76381 22.4775 7.72725 22.6731C7.39365 24.3558 7.03994 26.0348 6.6972 27.7156C6.56742 28.3508 6.80048 28.5711 7.42839 28.4221C9.06441 28.0355 10.6995 27.6415 12.3383 27.2668C12.5306 27.2224 12.7318 27.2367 12.9159 27.3079C15.125 28.2959 17.4072 28.5775 19.7808 28.0729C22.5256 27.491 24.9392 25.8708 26.5175 23.551C28.0957 21.2312 28.7164 18.3912 28.2498 15.6245C27.3514 10.3307 22.8463 6.54959 17.5059 6.48835V6.48927Z" fill="#27A81A"/>
<path d="M16.8986 0C16.459 0.049355 16.0194 0.0968821 15.5806 0.147151C11.1625 0.654411 7.46631 2.57925 4.48856 5.86502C2.28861 8.29347 0.912154 11.146 0.31441 14.365C0.191936 15.0231 0.157206 15.6967 0.0786038 16.3621C0.0575823 16.5449 0.0265055 16.7195 0 16.8977V0H16.8986Z" fill="white"/>
<path d="M17.5055 6.48828C22.8459 6.54952 27.3509 10.327 28.2521 15.6281C28.7173 18.3942 28.0959 21.2331 26.5176 23.552C24.9393 25.8708 22.5262 27.4902 19.7822 28.072C17.4059 28.5765 15.1264 28.295 12.9173 27.3069C12.7332 27.2357 12.532 27.2214 12.3397 27.2658C10.7009 27.6406 9.06578 28.0345 7.42975 28.4211C6.7991 28.5701 6.56604 28.3498 6.69856 27.7146C7.04131 26.0338 7.39502 24.3548 7.72862 22.6721C7.76517 22.4765 7.74357 22.2744 7.66647 22.0909C6.95952 20.5926 6.60368 18.9529 6.62602 17.2964C6.64837 15.6399 7.04832 14.0103 7.79543 12.5317C8.54253 11.0531 9.61711 9.76438 10.9374 8.76369C12.2576 7.763 13.7888 7.07669 15.4143 6.75699C16.1016 6.62355 16.8072 6.57602 17.5055 6.48828ZM9.65621 25.3693C9.79422 25.351 9.88196 25.3474 9.96605 25.3282C10.7402 25.1454 11.5198 24.9882 12.2857 24.7697C12.5044 24.7023 12.7347 24.6809 12.962 24.707C13.1893 24.7331 13.4088 24.8062 13.6064 24.9215C15.257 25.8089 17.162 26.1035 19.0035 25.7559C21.1662 25.3741 23.0955 24.1661 24.3837 22.3874C25.6718 20.6087 26.2177 18.3988 25.9059 16.2249C25.3767 12.3862 22.2006 9.31797 18.3144 8.99899C15.2324 8.74673 12.676 9.8563 10.7749 12.3131C9.40395 14.0798 8.87202 16.1116 9.10234 18.3454C9.22187 19.48 9.57142 20.5785 10.1297 21.5735C10.293 21.8572 10.3373 22.1941 10.253 22.5104C10.0392 23.4408 9.86094 24.3749 9.65621 25.3693Z" fill="white"/>
<path d="M9.65622 25.3692C9.86096 24.3748 10.0392 23.4379 10.2512 22.5084C10.3355 22.1921 10.2912 21.8553 10.1278 21.5716C9.56961 20.5765 9.22005 19.4781 9.10052 18.3434C8.8702 16.1115 9.40579 14.0797 10.7731 12.3111C12.6742 9.85436 15.2306 8.74661 18.3125 8.99704C22.1988 9.31602 25.3749 12.387 25.9041 16.223C26.2159 18.3966 25.6703 20.6063 24.3825 22.3849C23.0948 24.1635 21.1658 25.3717 19.0035 25.754C17.162 26.1015 15.257 25.807 13.6064 24.9195C13.4089 24.8048 13.1897 24.7322 12.9627 24.7064C12.7357 24.6806 12.5058 24.7021 12.2876 24.7696C11.5235 24.9881 10.742 25.1462 9.96789 25.3281C9.88198 25.3473 9.79424 25.3509 9.65622 25.3692ZM20.3434 22.7726C20.6898 22.7186 21.0444 22.694 21.3817 22.6062C22.1842 22.3978 22.6814 21.7983 23.1301 21.1566C23.5871 20.4977 23.3751 19.9091 22.6092 19.6943C22.1613 19.5672 21.6952 19.485 21.2674 19.3104C20.5363 19.0115 19.9668 19.1349 19.4614 19.7674C19.1223 20.1915 18.8116 20.2244 18.3427 19.9502C17.0816 19.21 15.9755 18.233 15.0853 17.073C14.7535 16.6425 14.7818 16.3747 15.1163 15.9323C15.2397 15.7696 15.4088 15.6216 15.4737 15.437C15.556 15.2039 15.6474 14.9059 15.5651 14.6975C15.2991 13.9846 14.9783 13.2909 14.6447 12.6073C14.5962 12.4996 14.5233 12.4047 14.4318 12.33C14.3403 12.2553 14.2327 12.203 14.1174 12.177C14.0022 12.151 13.8826 12.1522 13.7679 12.1804C13.6532 12.2086 13.5466 12.263 13.4566 12.3395C13.1658 12.5774 12.898 12.8421 12.6568 13.1301C12.2094 13.6367 11.9784 14.2985 12.0134 14.9736C12.0482 15.8304 12.2997 16.6643 12.7446 17.3974C13.8258 19.219 15.3403 20.6147 17.1253 21.7233C18.1042 22.3329 19.1644 22.7214 20.3434 22.7726Z" fill="#27A81A"/>
<path d="M20.3434 22.7728C19.1643 22.7217 18.1041 22.3332 17.1243 21.7236C15.3393 20.6149 13.8249 19.2193 12.7436 17.3977C12.2988 16.6646 12.0472 15.8306 12.0124 14.9738C11.9765 14.2954 12.2093 13.6301 12.6605 13.1221C12.9017 12.8341 13.1694 12.5694 13.4602 12.3315C13.5502 12.2551 13.6568 12.2006 13.7715 12.1724C13.8862 12.1442 14.0059 12.1431 14.1211 12.169C14.2363 12.195 14.3439 12.2474 14.4354 12.3221C14.5269 12.3967 14.5998 12.4917 14.6484 12.5993C14.982 13.283 15.3028 13.9767 15.5687 14.6896C15.6464 14.898 15.555 15.1959 15.4773 15.429C15.4125 15.6118 15.2434 15.7617 15.12 15.9244C14.7855 16.3668 14.7544 16.6345 15.0889 17.065C15.9792 18.225 17.0853 19.202 18.3463 19.9422C18.8152 20.2164 19.126 20.1872 19.465 19.7595C19.9705 19.1297 20.5381 19.0063 21.2711 19.3025C21.6997 19.477 22.1649 19.5593 22.6128 19.6863C23.3787 19.9029 23.5935 20.4916 23.1338 21.1487C22.685 21.7885 22.1878 22.3899 21.3853 22.5983C21.0444 22.6942 20.6898 22.7189 20.3434 22.7728Z" fill="white"/>
</g>
<defs>
<clipPath id="clip0_2_346">
<rect width="35" height="35" fill="white"/>
</clipPath>
</defs>
</svg>
